<svg width="11" height="12" viewBox="0 0 11 12" fill="none" xmlns="http://www.w3.org/2000/svg">
<path fill-rule="evenodd" clip-rule="evenodd" d="M0.95981 5.70679C0.772104 5.51926 0.666656 5.26495 0.666656 4.99979C0.666656 4.73462 0.772104 4.48031 0.95981 4.29279L4.96482 0.292787C5.15258 0.105316 5.40721 0 5.6727 0C5.9382 0 6.19282 0.105316 6.38059 0.292787L10.3856 4.29279C10.568 4.48139 10.6689 4.73399 10.6666 4.99619C10.6643 5.25838 10.559 5.5092 10.3734 5.6946C10.1878 5.88001 9.93663 5.98518 9.6741 5.98746C9.41158 5.98974 9.15866 5.88894 8.96982 5.70679L6.67395 3.41379V10.9998C6.67395 11.265 6.56846 11.5194 6.38069 11.7069C6.19292 11.8944 5.93825 11.9998 5.6727 11.9998C5.40715 11.9998 5.15248 11.8944 4.96471 11.7069C4.77694 11.5194 4.67145 11.265 4.67145 10.9998V3.41379L2.37558 5.70679C2.18782 5.89426 1.93319 5.99957 1.66769 5.99957C1.4022 5.99957 1.14757 5.89426 0.95981 5.70679Z" fill="#10B981"/>
</svg>
