<svg width="10" height="12" viewBox="0 0 10 12" fill="none" xmlns="http://www.w3.org/2000/svg">
<path fill-rule="evenodd" clip-rule="evenodd" d="M9.70682 6.293C9.89452 6.48053 9.99997 6.73484 9.99997 7C9.99997 7.26516 9.89452 7.51947 9.70682 7.707L5.70181 11.707C5.51405 11.8945 5.25942 11.9998 4.99392 11.9998C4.72843 11.9998 4.4738 11.8945 4.28604 11.707L0.281033 7.707C0.0986466 7.5184 -0.00227394 7.2658 7.33238e-06 7.0036C0.0022886 6.7414 0.107589 6.49059 0.293229 6.30518C0.478869 6.11977 0.729996 6.0146 0.992521 6.01233C1.25505 6.01005 1.50796 6.11084 1.6968 6.293L3.99267 8.586V1C3.99267 0.734784 4.09816 0.48043 4.28593 0.292893C4.4737 0.105357 4.72838 0 4.99392 0C5.25947 0 5.51414 0.105357 5.70192 0.292893C5.88969 0.48043 5.99518 0.734784 5.99518 1V8.586L8.29105 6.293C8.47881 6.10553 8.73343 6.00021 8.99893 6.00021C9.26443 6.00021 9.51905 6.10553 9.70682 6.293Z" fill="#FF2D2E"/>
</svg>
