<svg width="24" height="25" viewBox="0 0 24 25" fill="none" xmlns="http://www.w3.org/2000/svg">
<path d="M3 18.8775C3 16.8753 4.45485 15.1698 6.43204 14.8543L6.61013 14.8259C8.19336 14.5732 9.80664 14.5732 11.3899 14.8259L11.568 14.8543C13.5451 15.1698 15 16.8753 15 18.8775C15 19.7429 14.2984 20.4444 13.433 20.4444H4.56697C3.70156 20.4444 3 19.7429 3 18.8775Z" stroke="#919EAB" stroke-width="1.5"/>
<path d="M12.5 7.94444C12.5 9.87744 10.933 11.4444 9 11.4444C7.067 11.4444 5.5 9.87744 5.5 7.94444C5.5 6.01145 7.067 4.44444 9 4.44444C10.933 4.44444 12.5 6.01145 12.5 7.94444Z" stroke="#919EAB" stroke-width="1.5"/>
<path d="M15 11.4444C16.933 11.4444 18.5 9.87744 18.5 7.94444C18.5 6.01145 16.933 4.44444 15 4.44444M17.3899 20.4444H19.433C20.2984 20.4444 21 19.7429 21 18.8775C21 16.8753 19.5451 15.1698 17.568 14.8543V14.8543C17.4494 14.8354 17.3293 14.8259 17.2093 14.8259C16.8895 14.8259 16.7902 14.8259 16.2412 14.8259" stroke="#919EAB" stroke-width="1.5" stroke-linecap="round"/>
</svg>
