<svg width="197" height="262" viewBox="0 0 197 262" fill="none" xmlns="http://www.w3.org/2000/svg">
<g filter="url(#filter0_dddddd)">
<path d="M35 41C35 18.3563 53.3563 0 76 0C98.6437 0 117 18.3563 117 41C117 63.6437 98.6437 82 76 82C53.3563 82 35 63.6437 35 41Z" fill="white"/>
<path d="M77.7924 20.0397C77.8476 20.0974 77.8867 20.1764 77.8999 20.2791C77.9619 20.8672 77.0671 21.1942 76.9948 20.4983C76.9246 20.271 77.0253 20.0963 77.182 20C77.3862 20.0105 77.5897 20.0238 77.7924 20.0397Z" fill="black"/>
<path d="M78.8014 21.0099C78.6981 20.0948 80.1953 20.0982 80.1953 20.9577C80.1987 21.0502 80.184 21.1425 80.1521 21.2293C80.1202 21.3161 80.0717 21.3957 80.0094 21.4635C79.947 21.5314 79.8721 21.5862 79.7889 21.6247C79.7056 21.6633 79.6156 21.6849 79.5241 21.6884C79.4326 21.6918 79.3413 21.6769 79.2555 21.6447C79.1696 21.6125 79.0909 21.5634 79.0238 21.5004C78.9566 21.4374 78.9025 21.3617 78.8643 21.2775C78.8262 21.1933 78.8048 21.1024 78.8014 21.0099Z" fill="black"/>
<path d="M82.0266 22.9026C83.2312 22.8678 83.1348 20.9333 81.9062 21.0481C80.6982 21.069 80.8324 23.0279 82.0266 22.9026Z" fill="black"/>
<path d="M75.2979 22.7322C75.1843 20.5993 71.9114 20.6654 72.0731 22.8714C72.0697 25.0947 75.353 24.8825 75.2979 22.7322Z" fill="black"/>
<path d="M80.5878 23.8456C78.6915 20.648 74.8094 23.449 77.4043 26.323C79.6414 26.8901 80.4501 26.2603 80.5878 23.8456Z" fill="black"/>
<path d="M59.4944 36.4655C56.7859 36.3333 56.8479 40.6861 59.5461 40.6165C62.2787 40.6513 62.1858 36.2289 59.4944 36.4655Z" fill="black"/>
<path d="M62.5917 48.9777C59.9313 48.7098 59.8006 53.1043 62.4334 53.153C65.2383 53.2991 65.3002 48.922 62.5917 48.9777Z" fill="black"/>
<path d="M73.3674 55.6999C70.7071 55.6268 70.7862 60.0562 73.45 59.8335C76.162 59.9344 76.1551 55.5677 73.3674 55.6999Z" fill="black"/>
<path d="M92.4028 45.7764C95.1561 45.9748 95.2456 41.6568 92.4544 41.6011C89.8767 41.5455 89.7011 45.8634 92.4028 45.7764Z" fill="black"/>
<path d="M85.8946 56.8098C88.6134 56.8098 88.5033 52.464 85.6778 52.6554C83.045 52.6658 83.2412 57.0847 85.8946 56.8098Z" fill="black"/>
<path d="M64.113 27.4433C63.7688 30.0424 68.1982 30.373 68.1809 27.7356C68.4872 24.8163 64.082 24.7363 64.113 27.4433Z" fill="black"/>
<path d="M70.8512 25.1573C69.0409 25.1921 68.8069 27.5407 70.1629 28.3758C70.2988 28.511 70.4794 28.5908 70.6699 28.5998C70.8604 28.6088 71.0475 28.5464 71.1953 28.4245C72.9987 27.9687 72.8232 25.1155 70.8512 25.1573Z" fill="black"/>
<path d="M90.1898 37.5651C92.2961 37.6799 92.3167 34.3013 90.1898 34.3187C88.0629 34.3361 88.0904 37.6834 90.1898 37.5651Z" fill="black"/>
<path d="M94.1683 37.1301C92.1033 36.8761 91.9794 40.3486 93.9618 40.3834C96.1954 40.5504 96.2986 37.0675 94.1683 37.1301Z" fill="black"/>
<path d="M86.6832 28.0974C88.7481 29.1656 89.6464 25.6618 87.7157 24.9659C85.7058 24.1796 84.4014 27.6033 86.6832 28.0974Z" fill="black"/>
<path d="M88.8408 52.3596C88.686 54.496 91.9933 54.6074 92.1207 52.471C92.1689 50.3485 88.7926 50.2476 88.8408 52.3596Z" fill="black"/>
<path d="M63.1321 29.8511C63.2423 27.7635 59.8764 27.6695 59.9315 29.7955C59.7594 31.9701 63.1218 32.0745 63.1321 29.8511Z" fill="black"/>
<path d="M78.471 57.8711C76.3131 57.5788 76.1273 60.9817 78.2129 61.0756C80.2882 61.2357 80.5773 57.8989 78.471 57.8711Z" fill="black"/>
<path d="M62.3062 33.0243C60.1758 32.9826 60.2825 36.2916 62.3612 36.3229C64.4262 36.2115 64.4331 32.8956 62.3062 33.0243Z" fill="black"/>
<path d="M63.2524 55.6721C63.0631 57.8572 66.4462 57.9894 66.4565 55.7034C66.5047 53.734 63.2111 53.5322 63.2524 55.6721Z" fill="black"/>
<path d="M69.6263 53.3443C67.527 53.1912 67.41 56.5245 69.4715 56.5384C71.6363 56.8063 71.7911 53.299 69.6263 53.3443Z" fill="black"/>
<path d="M63.3694 46.3402C63.5208 44.2525 60.1996 44.1516 60.2203 46.1871C59.9174 48.3339 63.4313 48.5009 63.3694 46.3402Z" fill="black"/>
<path d="M81.1766 53.8488C79.1358 53.6435 78.9017 57.0499 80.9598 57.0707C83.2416 57.3073 83.2829 53.8279 81.1766 53.8488Z" fill="black"/>
<path d="M89.7321 46.0514C87.526 45.8739 87.5467 49.2664 89.7528 49.2734C91.625 49.2212 91.7695 45.9922 89.7321 46.0514Z" fill="black"/>
<path d="M74.9814 28.6159C75.8345 28.7135 75.8909 28.198 75.9476 27.6792C75.9636 27.5325 75.9797 27.3854 76.0139 27.2519C74.6751 23.5916 71.3918 28.4175 74.9814 28.6159Z" fill="black"/>
<path d="M88.0044 50.0806C87.9631 48.4 85.3337 48.1077 85.4163 49.9344C85.4198 51.5315 87.8461 51.7055 88.0044 50.0806Z" fill="black"/>
<path d="M66.498 32.84C66.7905 30.6305 64.1577 30.4531 64.0373 32.1893C63.8067 33.675 66.3018 34.0021 66.498 32.84Z" fill="black"/>
<path d="M89.8009 38.4941C88.0801 38.3201 87.9631 40.9888 89.6942 40.9645C91.3634 41.0375 91.4081 38.4593 89.8009 38.4941Z" fill="black"/>
<path d="M67.5578 57.3005C66.0091 57.13 65.6856 59.7987 67.3685 59.7361C69.0515 59.9379 69.2029 57.2553 67.5578 57.3005Z" fill="black"/>
<path d="M84.5353 22.4711C86.0874 22.3006 86.1218 24.7849 84.6454 24.9798C83.8573 25.2999 83.2928 25.2199 83.2447 24.2108C83.2309 23.2818 83.551 22.5894 84.5353 22.4711Z" fill="black"/>
<path d="M60.9704 42.5127C60.8018 44.0785 63.3795 44.1968 63.5826 42.6728C63.7547 40.94 61.0462 40.867 60.9704 42.5127Z" fill="black"/>
<path d="M68.501 51.6254C68.3874 50.1223 65.7958 50.4772 66.0264 52.0986C66.1125 53.8175 68.6971 53.4452 68.501 51.6254Z" fill="black"/>
<path d="M59.0126 47.5684C59.2708 45.8914 56.6827 45.5747 56.5106 47.1613C56.2215 48.7097 58.8061 49.1446 59.0126 47.5684Z" fill="black"/>
<path d="M80.9492 59.6073C80.8425 61.2009 83.4684 61.1105 83.3342 59.5343C83.3686 57.7528 80.7668 57.9964 80.9492 59.6073Z" fill="black"/>
<path d="M59.9724 32.7043C60.1204 30.9645 57.5633 30.6757 57.5323 32.3563C57.3361 33.8873 59.8622 34.2874 59.9724 32.7043Z" fill="black"/>
<path d="M94.0792 36.135C95.8275 36.2707 95.9308 33.6994 94.2651 33.6994C92.6613 33.4836 92.4961 36.0236 94.0792 36.135Z" fill="black"/>
<path d="M93.2216 48.5114C91.5593 48.3722 91.6213 50.947 93.1975 51.0061C94.8461 51.1175 94.8116 48.5148 93.2216 48.5114Z" fill="black"/>
<path d="M78.6431 54.9901C78.4882 53.2504 75.993 53.3826 76.172 55.1154C76.2098 56.7472 78.5949 56.5559 78.6431 54.9901Z" fill="black"/>
<path d="M71.0577 22.8505C71.2194 21.2082 68.8 20.8951 68.6658 22.5548C68.3698 24.1762 70.8512 24.4824 71.0577 22.8505Z" fill="black"/>
<path d="M56.1354 43.5427C56.9648 41.6012 57.6807 41.3854 59.1812 42.6137C60.5269 44.4682 57.8527 45.9122 56.4795 44.6109C56.3522 44.5169 56.3901 44.4056 56.4795 44.3673C56.3653 44.2643 56.2751 44.1368 56.2156 43.9942C56.1561 43.8516 56.1287 43.6973 56.1354 43.5427Z" fill="black"/>
<path d="M89.5257 42.6763C89.653 41.4759 87.7257 41.4202 87.7085 42.5858C87.5399 43.8662 89.6048 43.9985 89.5257 42.6763Z" fill="black"/>
<path d="M84.2735 59.0436C84.3527 60.2127 86.2627 60.0874 86.0872 58.9009C86.0459 57.6031 84.0119 57.7493 84.2735 59.0436Z" fill="black"/>
<path d="M86.9961 33.2158C86.9617 32.0676 85.1858 31.824 85.055 33.0314C84.8451 34.3466 86.8378 34.538 86.9961 33.2158Z" fill="black"/>
<path d="M68.1949 30.0981C66.9043 30.0807 66.8665 32.1197 68.4771 31.9039C69.2653 31.8518 69.3341 29.9868 68.1949 30.0981Z" fill="black"/>
<path d="M66.8869 24.2353C68.2051 24.2109 67.9194 22.2415 66.677 22.412C65.4724 22.4433 65.7478 24.3744 66.8869 24.2353Z" fill="black"/>
<path d="M66.9174 49.075C66.9174 47.7946 64.8834 47.8816 65.059 49.1446C65.0831 50.2893 66.9346 50.2267 66.9174 49.075Z" fill="black"/>
<path d="M83.8713 50.3068C82.6598 50.2267 82.6047 52.123 83.7852 52.1648C85.0311 52.2726 85.0827 50.2998 83.8713 50.3068Z" fill="black"/>
<path d="M94.9015 46.1905C93.6247 46.368 93.7417 48.2782 95.0667 48.0799C96.2369 47.9755 96.1026 46.1871 94.9015 46.1905Z" fill="black"/>
<path d="M93.5904 32.8678C94.6607 32.7877 94.9292 31.0132 93.7556 30.9019C92.4926 30.7279 92.2791 32.7321 93.5904 32.8678Z" fill="black"/>
<path d="M58.0178 35.1364C57.9937 33.9568 56.2488 33.8594 56.1111 35.0041C55.9632 36.2811 57.8836 36.3263 58.0178 35.1364Z" fill="black"/>
<path d="M86.0035 29.8586C85.9843 29.9418 85.9635 30.0322 85.9635 30.1225C85.7708 31.8657 84.8071 31.81 83.5613 31.1802L83.5991 30.1364C83.4993 29.5727 83.754 29.27 84.2874 29.1656L85.3199 29.0508C85.3399 29.0909 85.3735 29.1225 85.4145 29.1397C85.4556 29.1569 85.5013 29.1587 85.5436 29.1448L85.6985 29.5275C85.8273 29.5771 85.9395 29.6628 86.022 29.7745C86.0166 29.8015 86.0101 29.8296 86.0035 29.8586Z" fill="black"/>
<path d="M70.0016 59.3046C68.8487 59.3777 68.8556 61.2148 70.0257 61.2218C71.1959 61.3018 71.2475 59.3498 70.0016 59.3046Z" fill="black"/>
<path d="M64.2919 39.6179C64.4502 38.414 62.4713 38.3166 62.4541 39.4752C62.2028 40.7731 64.1645 40.8009 64.2919 39.6179Z" fill="black"/>
<path d="M75.3844 53.7618C75.2812 52.6832 73.3849 52.8015 73.581 53.9671C73.6051 55.1884 75.5014 55.0388 75.3844 53.7618Z" fill="black"/>
<path d="M59.274 50.2163C59.274 49.1376 57.326 49.336 57.474 50.4633C57.5085 51.7402 59.3944 51.5593 59.274 50.2163Z" fill="black"/>
<path d="M56.1215 36.8552C55.1406 36.8552 55.1234 38.3965 56.1215 38.32C56.975 38.3374 56.9991 36.9213 56.1215 36.8552Z" fill="black"/>
<path d="M71.8244 61.3847C71.8098 61.2875 71.815 61.1883 71.8396 61.0931C71.9635 60.1675 73.3057 60.5189 73.2403 61.3819C73.2261 61.4792 73.1925 61.5726 73.1414 61.6563C73.0903 61.74 73.0229 61.8123 72.9432 61.8688C72.8635 61.9253 72.7733 61.9648 72.678 61.9848C72.5828 62.0049 72.4845 62.0051 72.3891 61.9854C72.2938 61.9657 72.2034 61.9266 72.1235 61.8705C72.0436 61.8143 71.9759 61.7423 71.9244 61.6588C71.873 61.5753 71.839 61.482 71.8244 61.3847Z" fill="black"/>
<path d="M64.4467 25.1573C65.3105 24.9659 65.0593 23.5115 64.192 23.6785C63.28 23.8351 63.6035 25.1573 64.4467 25.1573Z" fill="black"/>
<path d="M95.2522 44.757C95.2729 45.7382 96.6289 45.4529 96.6564 44.6039C96.5256 43.7166 95.0836 43.8175 95.2522 44.757Z" fill="black"/>
<path d="M87.0268 57.791C86.9477 58.7513 88.1901 58.8348 88.3277 57.8989C88.4034 57.1055 86.9098 56.8515 87.0268 57.791Z" fill="black"/>
<path d="M92.499 29.9416C93.4317 30.0112 93.4833 28.5776 92.499 28.6959C91.6834 28.6751 91.6386 30.046 92.499 29.9416Z" fill="black"/>
<path d="M59.5117 52.3249C58.6754 52.1265 58.4792 53.4626 59.3052 53.5531C60.1621 53.8071 60.5442 52.2553 59.5117 52.3249Z" fill="black"/>
<path d="M88.087 29.531C86.1735 31.2116 88.4725 34.4579 90.5719 32.9235C91.5699 32.2276 91.8797 31.2464 91.1535 30.1155C91.1087 29.6841 90.8093 29.5519 90.4652 29.4823L89.4671 29.0369L88.4346 29.3292L88.087 29.531Z" fill="black"/>
<path d="M81.3379 51.3297C82.2327 51.3471 82.4117 52.5545 81.5444 52.6275C81.3897 52.6243 81.2411 52.5663 81.1243 52.4637C81.0076 52.361 80.9302 52.2202 80.9056 52.0657C80.881 51.9113 80.9109 51.753 80.9899 51.6185C81.0689 51.484 81.192 51.3818 81.3379 51.3297Z" fill="black"/>
<path d="M86.7656 34.9485C85.9087 35.0251 85.9328 36.3055 86.8276 36.1141C87.5297 36.048 87.5331 34.8859 86.7656 34.9485Z" fill="black"/>
<path d="M71.7843 52.6484C71.5813 53.6087 72.8616 53.6539 72.8926 52.6136C72.8306 52.0151 71.7912 51.8725 71.7843 52.6484Z" fill="black"/>
<path d="M79.1113 29.0612C79.1219 29.1396 79.1282 29.2194 79.1344 29.2992C79.1584 29.6055 79.1824 29.9106 79.4554 30.1259C80.8768 30.2234 80.1438 28.1531 79.1113 29.0612Z" fill="black"/>
<path d="M64.4674 37.9129C63.7344 37.9686 63.7481 36.7195 64.4674 36.8378C64.5435 36.827 64.6209 36.8329 64.6946 36.855C64.7682 36.8771 64.8362 36.9149 64.8942 36.9659C64.9521 37.0168 64.9985 37.0797 65.0303 37.1504C65.0621 37.221 65.0786 37.2977 65.0786 37.3753C65.0786 37.453 65.0621 37.5297 65.0303 37.6003C64.9985 37.671 64.9521 37.7339 64.8942 37.7849C64.8362 37.8358 64.7682 37.8736 64.6946 37.8957C64.6209 37.9178 64.5435 37.9237 64.4674 37.9129Z" fill="black"/>
<path d="M65.8306 46.6637C65.8925 45.8843 64.7258 45.9435 64.6639 46.6637C64.5296 47.4953 65.7824 47.4779 65.8306 46.6637Z" fill="black"/>
<path d="M88.0873 44.8267C88.132 44.0995 86.9033 44.2769 86.9033 44.7571C86.9205 45.6896 88.1699 45.5991 88.0873 44.8267Z" fill="black"/>
<path d="M69.8879 29.8581C69.6195 30.9019 71.0064 31.2498 71.1751 30.1747C70.7999 29.8476 70.4145 29.5588 69.8879 29.8581Z" fill="black"/>
<path d="M62.3715 25.9158C63.1252 26.1002 63.0598 25.2199 62.6434 24.9555C62.0239 24.6876 61.752 25.8393 62.3715 25.9158Z" fill="black"/>
<path d="M92.0585 27.5268C92.0103 26.8309 90.9537 26.8309 91.026 27.5268C91.0531 27.6447 91.1189 27.7498 91.2126 27.8251C91.3063 27.9003 91.4225 27.9413 91.5422 27.9413C91.6619 27.9413 91.7781 27.9003 91.8719 27.8251C91.9656 27.7498 92.0314 27.6447 92.0585 27.5268Z" fill="black"/>
<path d="M55.3643 39.176C54.7689 39.2455 54.9616 40.2198 55.5226 40.1676C56.2454 40.0771 56.0526 39.1307 55.3643 39.176Z" fill="black"/>
<path d="M89.0371 56.8063C88.9717 57.4674 89.9354 57.4256 89.956 56.8063C89.8975 56.187 88.9579 56.1243 89.0371 56.8063Z" fill="black"/>
<path d="M96.4192 42.137C96.3561 42.1437 96.2949 42.1637 96.2398 42.1956C96.1847 42.2275 96.1367 42.2707 96.099 42.3223C96.0613 42.374 96.0346 42.433 96.0206 42.4957C96.0067 42.5584 96.0058 42.6233 96.018 42.6863C96.0303 42.7493 96.0553 42.8091 96.0916 42.8618C96.128 42.9145 96.1747 42.959 96.229 42.9924C96.2832 43.0258 96.3438 43.0475 96.4067 43.056C96.4697 43.0644 96.5338 43.0596 96.5948 43.0417C97.2624 42.993 97.0353 42.0222 96.4192 42.137Z" fill="black"/>
<path d="M59.9659 54.8509C60.1414 55.3798 61.0535 55.258 60.9158 54.67C60.8711 54.0924 59.8627 54.3429 59.9659 54.8509Z" fill="black"/>
<path d="M86.8929 37.9269C87.4091 37.8956 87.5502 37.3493 87.0925 37.1684C86.6175 37.1058 86.5831 37.6868 86.8929 37.9269Z" fill="black"/>
<path d="M72.4622 29.4753C72.0113 29.705 71.8668 30.1399 72.3899 30.2373C72.9164 30.1643 72.679 29.7989 72.4622 29.4753Z" fill="black"/>
<path d="M83.9676 26.6291L83.0349 25.881L82.5634 25.5331L81.9198 25.5887L80.9665 26.6117C79.8445 29.6945 84.8417 29.6736 83.9676 26.6291Z" fill="black"/>
<path d="M76.7025 27.673C76.5132 28.3097 76.5545 28.8942 77.0776 29.3709C79.2355 29.5519 78.5265 26.3856 76.7025 27.673Z" fill="black"/>
</g>
<defs>
<filter id="filter0_dddddd" x="-45" y="0" width="242" height="262" filterUnits="userSpaceOnUse" color-interpolation-filters="sRGB">
<feFlood flood-opacity="0" result="BackgroundImageFix"/>
<feColorMatrix in="SourceAlpha" type="matrix" values="0 0 0 0 0 0 0 0 0 0 0 0 0 0 0 0 0 0 127 0" result="hardAlpha"/>
<feOffset dy="2.76726"/>
<feGaussianBlur stdDeviation="1.1069"/>
<feColorMatrix type="matrix" values="0 0 0 0 0.286275 0 0 0 0 0.415686 0 0 0 0 0.67451 0 0 0 0.0196802 0"/>
<feBlend mode="normal" in2="BackgroundImageFix" result="effect1_dropShadow"/>
<feColorMatrix in="SourceAlpha" type="matrix" values="0 0 0 0 0 0 0 0 0 0 0 0 0 0 0 0 0 0 127 0" result="hardAlpha"/>
<feOffset dy="6.6501"/>
<feGaussianBlur stdDeviation="2.66004"/>
<feColorMatrix type="matrix" values="0 0 0 0 0.286275 0 0 0 0 0.415686 0 0 0 0 0.67451 0 0 0 0.0282725 0"/>
<feBlend mode="normal" in2="effect1_dropShadow" result="effect2_dropShadow"/>
<feColorMatrix in="SourceAlpha" type="matrix" values="0 0 0 0 0 0 0 0 0 0 0 0 0 0 0 0 0 0 127 0" result="hardAlpha"/>
<feOffset dy="12.5216"/>
<feGaussianBlur stdDeviation="5.00862"/>
<feColorMatrix type="matrix" values="0 0 0 0 0.286275 0 0 0 0 0.415686 0 0 0 0 0.67451 0 0 0 0.035 0"/>
<feBlend mode="normal" in2="effect2_dropShadow" result="effect3_dropShadow"/>
<feColorMatrix in="SourceAlpha" type="matrix" values="0 0 0 0 0 0 0 0 0 0 0 0 0 0 0 0 0 0 127 0" result="hardAlpha"/>
<feOffset dy="22.3363"/>
<feGaussianBlur stdDeviation="8.93452"/>
<feColorMatrix type="matrix" values="0 0 0 0 0.286275 0 0 0 0 0.415686 0 0 0 0 0.67451 0 0 0 0.0417275 0"/>
<feBlend mode="normal" in2="effect3_dropShadow" result="effect4_dropShadow"/>
<feColorMatrix in="SourceAlpha" type="matrix" values="0 0 0 0 0 0 0 0 0 0 0 0 0 0 0 0 0 0 127 0" result="hardAlpha"/>
<feOffset dy="41.7776"/>
<feGaussianBlur stdDeviation="16.711"/>
<feColorMatrix type="matrix" values="0 0 0 0 0.286275 0 0 0 0 0.415686 0 0 0 0 0.67451 0 0 0 0.0503198 0"/>
<feBlend mode="normal" in2="effect4_dropShadow" result="effect5_dropShadow"/>
<feColorMatrix in="SourceAlpha" type="matrix" values="0 0 0 0 0 0 0 0 0 0 0 0 0 0 0 0 0 0 127 0" result="hardAlpha"/>
<feOffset dy="100"/>
<feGaussianBlur stdDeviation="40"/>
<feColorMatrix type="matrix" values="0 0 0 0 0.4786 0 0 0 0 0.6062 0 0 0 0 0.8614 0 0 0 0.07 0"/>
<feBlend mode="normal" in2="effect5_dropShadow" result="effect6_dropShadow"/>
<feBlend mode="normal" in="SourceGraphic" in2="effect6_dropShadow" result="shape"/>
</filter>
</defs>
</svg>
