<svg width="26" height="25" viewBox="0 0 26 25" fill="none" xmlns="http://www.w3.org/2000/svg">
<circle cx="13" cy="12.4445" r="4" stroke="#919EAB" stroke-width="2"/>
<path d="M11.2844 2.30738C12.061 1.01142 13.939 1.01142 14.7156 2.30739L15.4213 3.48515C15.8742 4.24095 16.7684 4.61132 17.6231 4.39714L18.9549 4.06338C20.4204 3.69612 21.7483 5.02404 21.3811 6.48955L21.0473 7.82141C20.8331 8.67608 21.2035 9.57024 21.9593 10.0231L23.1371 10.7289C24.433 11.5055 24.433 13.3834 23.1371 14.16L21.9593 14.8658C21.2035 15.3187 20.8331 16.2128 21.0473 17.0675L21.3811 18.3994C21.7483 19.8649 20.4204 21.1928 18.9549 20.8255L17.6231 20.4918C16.7684 20.2776 15.8742 20.648 15.4213 21.4038L14.7156 22.5815C13.939 23.8775 12.061 23.8775 11.2844 22.5815L10.5787 21.4038C10.1258 20.648 9.23162 20.2776 8.37695 20.4918L7.04509 20.8255C5.57958 21.1928 4.25166 19.8649 4.61892 18.3994L4.95268 17.0675C5.16686 16.2128 4.79649 15.3187 4.04069 14.8658L2.86293 14.16C1.56696 13.3834 1.56696 11.5055 2.86293 10.7289L4.0407 10.0231C4.79649 9.57024 5.16686 8.67608 4.95268 7.82141L4.61892 6.48955C4.25166 5.02404 5.57958 3.69612 7.0451 4.06338L8.37695 4.39714C9.23162 4.61132 10.1258 4.24095 10.5787 3.48515L11.2844 2.30738Z" stroke="#919EAB" stroke-width="2"/>
</svg>
