<svg width="24" height="25" viewBox="0 0 24 25" fill="none" xmlns="http://www.w3.org/2000/svg">
<path d="M7.42631 13.1016C7.06441 11.5587 7.06441 9.95308 7.42631 8.41025C7.92742 6.27393 9.59548 4.60588 11.7318 4.10477C13.2746 3.74287 14.8803 3.74287 16.4231 4.10477C18.5594 4.60588 20.2275 6.27394 20.7286 8.41026C21.0905 9.95308 21.0905 11.5587 20.7286 13.1015C20.2275 15.2379 18.5594 16.9059 16.4231 17.407C14.8803 17.7689 13.2746 17.7689 11.7318 17.407M7.42631 13.1016C7.92742 15.2379 9.59548 16.9059 11.7318 17.407M7.42631 13.1016C7.19844 12.1301 7.11405 11.1338 7.17313 10.1439C7.08958 10.161 7.00622 10.1792 6.92307 10.1987C5.09194 10.6283 3.66217 12.058 3.23265 13.8892C2.92245 15.2116 2.92245 16.5879 3.23265 17.9103C3.66217 19.7414 5.09194 21.1712 6.92307 21.6007C8.24549 21.9109 9.62175 21.9109 10.9442 21.6007C12.7753 21.1712 14.2051 19.7414 14.6346 17.9103C14.6541 17.8271 14.6724 17.7438 14.6894 17.6602C13.6996 17.7193 12.7032 17.6349 11.7318 17.407" stroke="#919EAB" stroke-width="1.5"/>
<path d="M7.42633 13.1016C7.06443 11.5587 7.06443 9.95308 7.42633 8.41025C7.92744 6.27393 9.5955 4.60588 11.7318 4.10477C13.2746 3.74287 14.8803 3.74287 16.4231 4.10477C18.5594 4.60588 20.2275 6.27394 20.7286 8.41026C21.0905 9.95308 21.0905 11.5587 20.7286 13.1015C20.2275 15.2379 18.5594 16.9059 16.4231 17.407C14.8803 17.7689 13.2746 17.7689 11.7318 17.407M7.42633 13.1016C7.92744 15.2379 9.5955 16.9059 11.7318 17.407M7.42633 13.1016C7.19846 12.1301 7.11407 11.1338 7.17315 10.1439M11.7318 17.407C12.7032 17.6349 13.6996 17.7193 14.6895 17.6602" stroke="#919EAB" stroke-width="1.5"/>
</svg>
