<svg width="24" height="25" viewBox="0 0 24 25" fill="none" xmlns="http://www.w3.org/2000/svg">
<path d="M3.35288 15.6607L2.6227 15.832L3.35288 15.6607ZM3.35288 9.56155L2.6227 9.39027L3.35288 9.56155ZM20.6471 9.56155L19.9169 9.73283L20.6471 9.56155ZM20.6471 15.6607L19.9169 15.4894L20.6471 15.6607ZM15.0496 21.2582L14.8783 20.5281L15.0496 21.2582ZM8.95044 21.2582L8.77916 21.9884L8.95044 21.2582ZM8.95043 3.96399L8.77916 3.23381L8.95043 3.96399ZM15.0496 3.96399L14.8783 4.69417L15.0496 3.96399ZM11.25 9.99583C11.25 10.41 11.5858 10.7458 12 10.7458C12.4142 10.7458 12.75 10.41 12.75 9.99583H11.25ZM12.75 8.45002C12.75 8.03581 12.4142 7.70002 12 7.70002C11.5858 7.70002 11.25 8.03581 11.25 8.45002H12.75ZM11.25 16.7722C11.25 17.1864 11.5858 17.5222 12 17.5222C12.4142 17.5222 12.75 17.1864 12.75 16.7722H11.25ZM12.75 15.2265C12.75 14.8123 12.4142 14.4765 12 14.4765C11.5858 14.4765 11.25 14.8123 11.25 15.2265H12.75ZM10.1101 14.5683C10.4688 14.3612 10.5917 13.9025 10.3846 13.5438C10.1775 13.185 9.71882 13.0621 9.3601 13.2692L10.1101 14.5683ZM8.02139 14.0421C7.66267 14.2492 7.53976 14.7079 7.74687 15.0667C7.95398 15.4254 8.41267 15.5483 8.77139 15.3412L8.02139 14.0421ZM15.9786 11.1801C16.3373 10.973 16.4602 10.5143 16.2531 10.1556C16.046 9.79685 15.5873 9.67394 15.2286 9.88105L15.9786 11.1801ZM13.89 10.6539C13.5313 10.861 13.4084 11.3197 13.6155 11.6784C13.8226 12.0371 14.2813 12.16 14.64 11.9529L13.89 10.6539ZM9.3601 11.953C9.71882 12.1601 10.1775 12.0372 10.3846 11.6785C10.5917 11.3198 10.4688 10.8611 10.1101 10.654L9.3601 11.953ZM8.77139 9.88105C8.41267 9.67394 7.95398 9.79685 7.74687 10.1556C7.53976 10.5143 7.66267 10.973 8.02139 11.1801L8.77139 9.88105ZM15.2286 15.3412C15.5873 15.5483 16.046 15.4254 16.2531 15.0667C16.4602 14.7079 16.3373 14.2492 15.9786 14.0421L15.2286 15.3412ZM14.64 13.2693C14.2813 13.0622 13.8226 13.1851 13.6155 13.5438C13.4084 13.9025 13.5313 14.3612 13.89 14.5683L14.64 13.2693ZM4.08306 15.4894C3.63898 13.5962 3.63898 11.626 4.08306 9.73282L2.6227 9.39027C2.12577 11.5087 2.12577 13.7135 2.6227 15.832L4.08306 15.4894ZM19.9169 9.73283C20.361 11.626 20.361 13.5962 19.9169 15.4894L21.3773 15.832C21.8742 13.7135 21.8742 11.5088 21.3773 9.39027L19.9169 9.73283ZM14.8783 20.5281C12.9851 20.9721 11.0149 20.9721 9.12171 20.5281L8.77916 21.9884C10.8976 22.4853 13.1024 22.4853 15.2208 21.9884L14.8783 20.5281ZM9.12171 4.69417C11.0149 4.2501 12.9851 4.2501 14.8783 4.69417L15.2208 3.23381C13.1024 2.73688 10.8976 2.73688 8.77916 3.23381L9.12171 4.69417ZM9.12171 20.5281C6.62161 19.9416 4.6695 17.9895 4.08306 15.4894L2.6227 15.832C3.33924 18.8867 5.72441 21.2719 8.77916 21.9884L9.12171 20.5281ZM15.2208 21.9884C18.2756 21.2719 20.6608 18.8867 21.3773 15.832L19.9169 15.4894C19.3305 17.9895 17.3784 19.9416 14.8783 20.5281L15.2208 21.9884ZM14.8783 4.69417C17.3784 5.28062 19.3305 7.23272 19.9169 9.73283L21.3773 9.39027C20.6608 6.33553 18.2756 3.95036 15.2208 3.23381L14.8783 4.69417ZM8.77916 3.23381C5.72441 3.95036 3.33924 6.33552 2.6227 9.39027L4.08306 9.73282C4.6695 7.23272 6.62161 5.28062 9.12171 4.69417L8.77916 3.23381ZM12.75 9.99583V8.45002H11.25V9.99583H12.75ZM12.75 16.7722V15.2265H11.25V16.7722H12.75ZM9.3601 13.2692L8.02139 14.0421L8.77139 15.3412L10.1101 14.5683L9.3601 13.2692ZM15.2286 9.88105L13.89 10.6539L14.64 11.9529L15.9786 11.1801L15.2286 9.88105ZM10.1101 10.654L8.77139 9.88105L8.02139 11.1801L9.3601 11.953L10.1101 10.654ZM15.9786 14.0421L14.64 13.2693L13.89 14.5683L15.2286 15.3412L15.9786 14.0421Z" fill="#919EAB"/>
</svg>
